<svg xmlns="http://www.w3.org/2000/svg" xmlns:xlink="http://www.w3.org/1999/xlink" width="500" zoomAndPan="magnify" viewBox="0 0 375 374.999991" height="500" preserveAspectRatio="xMidYMid meet" version="1.0"><defs><g/><clipPath id="edca58c26f"><path d="M 141.105469 90.417969 L 335.363281 90.417969 L 335.363281 284.632812 L 141.105469 284.632812 Z M 141.105469 90.417969 " clip-rule="nonzero"/></clipPath><clipPath id="ecf10936be"><path d="M 245.351562 127.8125 C 249.449219 122.128906 254.457031 121.292969 259.957031 123.121094 C 256.167969 128.074219 251.480469 130.210938 245.351562 127.8125 M 265.863281 121.46875 C 274.84375 113.894531 283.320312 114.574219 291.523438 119.78125 C 283.347656 126.296875 274.859375 127.863281 265.863281 121.46875 Z M 296.90625 119.863281 C 311.363281 119.425781 317.75 126.753906 319.675781 138.367188 C 306.574219 138.171875 298.203125 132.925781 296.90625 119.863281 Z M 321.019531 141.949219 C 326.226562 146.644531 326.507812 151.707031 324.089844 156.980469 C 319.582031 152.671875 317.96875 147.78125 321.019531 141.949219 Z M 274.234375 139.371094 C 280.628906 136.5 285.378906 138.28125 289.230469 142.613281 C 283.472656 145.007812 278.347656 144.515625 274.234375 139.371094 Z M 295.171875 144.136719 C 306.734375 142.066406 313.738281 146.894531 318.238281 155.503906 C 307.902344 157.058594 299.765625 154.171875 295.171875 144.136719 Z M 322.859375 158.269531 C 335.597656 165.117188 337.464844 174.65625 333.328125 185.675781 C 322.074219 178.957031 317.449219 170.226562 322.859375 158.269531 Z M 332.699219 189.449219 C 334.859375 196.117188 332.570312 200.648438 327.84375 204.003906 C 326.089844 198.015625 327.140625 192.976562 332.699219 189.449219 Z M 254.910156 137.882812 C 260.949219 134.324219 265.867188 135.570312 270.171875 139.457031 C 264.710938 142.472656 259.5625 142.542969 254.910156 137.882812 Z M 293.472656 163.828125 C 300.445312 164.535156 303.667969 168.453125 304.835938 174.132812 C 298.652344 173.328125 294.460938 170.335938 293.472656 163.828125 Z M 309.222656 178.421875 C 320.269531 182.410156 323.921875 190.089844 323.511719 199.796875 C 313.785156 195.976562 308.179688 189.40625 309.222656 178.421875 Z M 326.132812 204.503906 C 333.738281 216.800781 330.585938 225.996094 321.492188 233.472656 C 315.109375 222.027344 315.46875 212.152344 326.132812 204.503906 Z M 319.066406 236.429688 C 317.597656 243.28125 313.355469 246.058594 307.582031 246.601562 C 309.058594 240.542969 312.488281 236.703125 319.066406 236.429688 Z M 277.480469 152.875 C 284.488281 152.8125 288.125 156.351562 289.910156 161.867188 C 283.675781 161.746094 279.179688 159.234375 277.480469 152.875 Z M 297.902344 194.621094 C 303.585938 198.722656 304.421875 203.726562 302.59375 209.230469 C 297.640625 205.441406 295.503906 200.75 297.902344 194.621094 Z M 304.246094 215.136719 C 311.820312 224.113281 311.140625 232.59375 305.929688 240.796875 C 299.421875 232.621094 297.851562 224.128906 304.246094 215.136719 Z M 305.851562 246.179688 C 306.289062 260.632812 298.960938 267.023438 287.347656 268.949219 C 287.542969 255.84375 292.789062 247.472656 305.851562 246.179688 Z M 283.765625 270.292969 C 279.070312 275.496094 274.003906 275.777344 268.734375 273.363281 C 273.042969 268.851562 277.933594 267.242188 283.765625 270.292969 Z M 289.53125 177.140625 C 295.632812 180.59375 297.011719 185.476562 295.796875 191.144531 C 290.457031 187.925781 287.820312 183.5 289.53125 177.140625 Z M 286.34375 223.507812 C 289.214844 229.902344 287.433594 234.652344 283.101562 238.503906 C 280.707031 232.746094 281.199219 227.617188 286.34375 223.507812 Z M 281.578125 244.445312 C 283.648438 256.007812 278.820312 263.011719 270.207031 267.507812 C 268.65625 257.171875 271.542969 249.035156 281.578125 244.445312 Z M 267.445312 272.132812 C 260.597656 284.871094 251.058594 286.738281 240.039062 282.597656 C 246.757812 271.347656 255.488281 266.71875 267.445312 272.132812 Z M 236.265625 281.972656 C 229.597656 284.132812 225.066406 281.84375 221.714844 277.117188 C 227.699219 275.363281 232.738281 276.414062 236.265625 281.972656 Z M 287.832031 204.183594 C 291.390625 210.222656 290.144531 215.140625 286.257812 219.445312 C 283.246094 213.984375 283.171875 208.835938 287.832031 204.183594 Z M 261.886719 242.742188 C 261.179688 249.714844 257.261719 252.941406 251.582031 254.109375 C 252.386719 247.925781 255.378906 243.730469 261.886719 242.742188 Z M 247.292969 258.492188 C 243.304688 269.539062 235.621094 273.191406 225.914062 272.78125 C 229.738281 263.054688 236.308594 257.449219 247.292969 258.492188 Z M 221.210938 275.402344 C 208.910156 283.011719 199.71875 279.859375 192.242188 270.765625 C 203.6875 264.378906 213.5625 264.738281 221.210938 275.402344 Z M 189.289062 268.335938 C 182.433594 266.871094 179.65625 262.625 179.113281 256.855469 C 185.171875 258.328125 189.011719 261.757812 189.289062 268.335938 Z M 272.839844 226.753906 C 272.902344 233.761719 269.363281 237.394531 263.847656 239.183594 C 263.964844 232.949219 266.480469 228.453125 272.839844 226.753906 Z M 231.09375 247.175781 C 226.992188 252.859375 221.988281 253.691406 216.484375 251.863281 C 220.273438 246.910156 224.960938 244.777344 231.09375 247.175781 Z M 210.578125 253.515625 C 201.601562 261.089844 193.121094 260.410156 184.917969 255.203125 C 193.09375 248.691406 201.585938 247.121094 210.578125 253.515625 Z M 179.535156 255.121094 C 165.078125 255.558594 158.691406 248.234375 156.765625 236.621094 C 169.871094 236.8125 178.242188 242.058594 179.535156 255.121094 Z M 155.421875 233.039062 C 150.21875 228.34375 149.933594 223.277344 152.351562 218.007812 C 156.863281 222.3125 158.472656 227.207031 155.421875 233.039062 Z M 248.570312 238.800781 C 245.121094 244.902344 240.238281 246.28125 234.570312 245.070312 C 237.789062 239.730469 242.214844 237.09375 248.570312 238.800781 Z M 202.207031 235.613281 C 195.8125 238.488281 191.0625 236.707031 187.210938 232.371094 C 192.96875 229.976562 198.097656 230.472656 202.207031 235.613281 Z M 181.269531 230.847656 C 169.707031 232.921875 162.703125 228.09375 158.207031 219.480469 C 168.542969 217.929688 176.679688 220.816406 181.269531 230.847656 Z M 153.585938 216.71875 C 140.847656 209.867188 138.976562 200.332031 143.117188 189.3125 C 154.367188 196.03125 158.996094 204.757812 153.585938 216.71875 Z M 143.742188 185.535156 C 141.582031 178.871094 143.871094 174.339844 148.597656 170.984375 C 150.351562 176.96875 149.300781 182.011719 143.742188 185.535156 Z M 221.53125 237.101562 C 215.492188 240.660156 210.574219 239.414062 206.269531 235.53125 C 211.730469 232.515625 216.878906 232.445312 221.53125 237.101562 Z M 182.972656 211.160156 C 176 210.453125 172.773438 206.53125 171.605469 200.855469 C 177.789062 201.660156 181.984375 204.652344 182.972656 211.160156 Z M 167.222656 196.566406 C 156.171875 192.578125 152.523438 184.894531 152.933594 175.1875 C 162.660156 179.011719 168.261719 185.578125 167.222656 196.566406 Z M 150.3125 170.484375 C 142.703125 158.183594 145.855469 148.988281 154.949219 141.515625 C 161.332031 152.960938 160.976562 162.832031 150.3125 170.484375 Z M 157.378906 138.558594 C 158.84375 131.707031 163.085938 128.925781 168.859375 128.382812 C 167.386719 134.445312 163.957031 138.285156 157.378906 138.558594 Z M 198.964844 222.109375 C 191.957031 222.175781 188.320312 218.632812 186.535156 213.117188 C 192.765625 213.238281 197.265625 215.75 198.964844 222.109375 Z M 178.539062 180.363281 C 172.855469 176.265625 172.023438 171.257812 173.851562 165.757812 C 178.804688 169.546875 180.9375 174.234375 178.539062 180.363281 Z M 172.199219 159.851562 C 164.621094 150.871094 165.304688 142.394531 170.511719 134.191406 C 177.023438 142.367188 178.59375 150.855469 172.199219 159.851562 Z M 170.59375 128.808594 C 170.15625 114.351562 177.480469 107.964844 189.09375 106.039062 C 188.902344 119.140625 183.65625 127.515625 170.59375 128.808594 Z M 192.675781 104.695312 C 197.371094 99.492188 202.4375 99.207031 207.707031 101.625 C 203.402344 106.132812 198.511719 107.746094 192.675781 104.695312 Z M 186.914062 197.84375 C 180.8125 194.394531 179.433594 189.511719 180.644531 183.839844 C 185.984375 187.0625 188.621094 191.488281 186.914062 197.84375 Z M 190.101562 151.480469 C 187.226562 145.085938 189.007812 140.335938 193.34375 136.484375 C 195.738281 142.242188 195.242188 147.371094 190.101562 151.480469 Z M 194.867188 130.542969 C 192.792969 118.980469 197.621094 111.976562 206.234375 107.476562 C 207.785156 117.816406 204.898438 125.953125 194.867188 130.542969 Z M 208.996094 102.859375 C 215.84375 90.117188 225.382812 88.25 236.40625 92.390625 C 229.683594 103.640625 220.957031 108.265625 208.996094 102.859375 Z M 240.179688 93.015625 C 246.84375 90.855469 251.375 93.144531 254.730469 97.871094 C 248.746094 99.625 243.703125 98.574219 240.179688 93.015625 Z M 188.613281 170.804688 C 185.054688 164.765625 186.300781 159.847656 190.183594 155.542969 C 193.199219 161 193.269531 166.152344 188.613281 170.804688 Z M 214.554688 132.242188 C 215.261719 125.269531 219.179688 122.046875 224.859375 120.878906 C 224.054688 127.0625 221.0625 131.257812 214.554688 132.242188 Z M 229.148438 116.496094 C 233.136719 105.445312 240.820312 101.792969 250.527344 102.203125 C 246.703125 111.933594 240.132812 117.535156 229.148438 116.496094 Z M 255.230469 99.585938 C 267.53125 91.976562 276.726562 95.128906 284.199219 104.222656 C 272.753906 110.605469 262.882812 110.246094 255.230469 99.585938 Z M 287.15625 106.648438 C 294.007812 108.113281 296.789062 112.359375 297.328125 118.132812 C 291.269531 116.660156 287.429688 113.230469 287.15625 106.648438 Z M 203.605469 148.234375 C 203.539062 141.226562 207.082031 137.589844 212.597656 135.804688 C 212.476562 142.039062 209.960938 146.535156 203.605469 148.234375 Z M 227.871094 136.183594 C 231.320312 130.082031 236.203125 128.703125 241.875 129.917969 C 238.652344 135.257812 234.226562 137.894531 227.871094 136.183594 Z M 227.871094 136.183594 " clip-rule="nonzero"/></clipPath><linearGradient x1="-12.168183" gradientTransform="matrix(0.066526, 0, 0, 0.066526, 138.977159, 88.249728)" y1="1444.761023" x2="2996.198826" gradientUnits="userSpaceOnUse" y2="1538.853716" id="6a33dbd465"><stop stop-opacity="1" stop-color="rgb(41.569519%, 55.688477%, 30.589294%)" offset="0"/><stop stop-opacity="1" stop-color="rgb(41.569519%, 55.688477%, 30.589294%)" offset="0.0303224"/><stop stop-opacity="1" stop-color="rgb(41.569519%, 55.688477%, 30.589294%)" offset="0.125"/><stop stop-opacity="1" stop-color="rgb(41.569519%, 55.688477%, 30.589294%)" offset="0.1875"/><stop stop-opacity="1" stop-color="rgb(41.569519%, 55.688477%, 30.589294%)" offset="0.21875"/><stop stop-opacity="1" stop-color="rgb(41.569519%, 55.688477%, 30.589294%)" offset="0.234375"/><stop stop-opacity="1" stop-color="rgb(41.630554%, 55.74646%, 30.633545%)" offset="0.242188"/><stop stop-opacity="1" stop-color="rgb(41.889954%, 55.987549%, 30.82428%)" offset="0.246094"/><stop stop-opacity="1" stop-color="rgb(42.088318%, 56.17218%, 30.969238%)" offset="0.25"/><stop stop-opacity="1" stop-color="rgb(42.286682%, 56.355286%, 31.114197%)" offset="0.253906"/><stop stop-opacity="1" stop-color="rgb(42.485046%, 56.539917%, 31.259155%)" offset="0.257812"/><stop stop-opacity="1" stop-color="rgb(42.681885%, 56.723022%, 31.404114%)" offset="0.261719"/><stop stop-opacity="1" stop-color="rgb(42.880249%, 56.907654%, 31.549072%)" offset="0.265625"/><stop stop-opacity="1" stop-color="rgb(43.078613%, 57.092285%, 31.694031%)" offset="0.269531"/><stop stop-opacity="1" stop-color="rgb(43.276978%, 57.276917%, 31.838989%)" offset="0.273438"/><stop stop-opacity="1" stop-color="rgb(43.473816%, 57.460022%, 31.983948%)" offset="0.277344"/><stop stop-opacity="1" stop-color="rgb(43.67218%, 57.644653%, 32.128906%)" offset="0.28125"/><stop stop-opacity="1" stop-color="rgb(43.870544%, 57.827759%, 32.273865%)" offset="0.285156"/><stop stop-opacity="1" stop-color="rgb(44.068909%, 58.01239%, 32.418823%)" offset="0.289062"/><stop stop-opacity="1" stop-color="rgb(44.265747%, 58.195496%, 32.563782%)" offset="0.292969"/><stop stop-opacity="1" stop-color="rgb(44.464111%, 58.380127%, 32.70874%)" offset="0.296875"/><stop stop-opacity="1" stop-color="rgb(44.66095%, 58.563232%, 32.853699%)" offset="0.300781"/><stop stop-opacity="1" stop-color="rgb(44.859314%, 58.747864%, 32.998657%)" offset="0.304688"/><stop stop-opacity="1" stop-color="rgb(45.057678%, 58.930969%, 33.143616%)" offset="0.308594"/><stop stop-opacity="1" stop-color="rgb(45.256042%, 59.115601%, 33.288574%)" offset="0.3125"/><stop stop-opacity="1" stop-color="rgb(45.452881%, 59.300232%, 33.433533%)" offset="0.316406"/><stop stop-opacity="1" stop-color="rgb(45.651245%, 59.484863%, 33.578491%)" offset="0.320312"/><stop stop-opacity="1" stop-color="rgb(45.849609%, 59.667969%, 33.72345%)" offset="0.324219"/><stop stop-opacity="1" stop-color="rgb(46.047974%, 59.8526%, 33.868408%)" offset="0.328125"/><stop stop-opacity="1" stop-color="rgb(46.244812%, 60.035706%, 34.013367%)" offset="0.332031"/><stop stop-opacity="1" stop-color="rgb(46.443176%, 60.220337%, 34.158325%)" offset="0.335938"/><stop stop-opacity="1" stop-color="rgb(46.640015%, 60.403442%, 34.303284%)" offset="0.339844"/><stop stop-opacity="1" stop-color="rgb(46.838379%, 60.588074%, 34.448242%)" offset="0.34375"/><stop stop-opacity="1" stop-color="rgb(47.036743%, 60.771179%, 34.593201%)" offset="0.347656"/><stop stop-opacity="1" stop-color="rgb(47.235107%, 60.955811%, 34.738159%)" offset="0.351563"/><stop stop-opacity="1" stop-color="rgb(47.431946%, 61.138916%, 34.883118%)" offset="0.355469"/><stop stop-opacity="1" stop-color="rgb(47.63031%, 61.323547%, 35.028076%)" offset="0.359375"/><stop stop-opacity="1" stop-color="rgb(47.828674%, 61.506653%, 35.173035%)" offset="0.363281"/><stop stop-opacity="1" stop-color="rgb(48.027039%, 61.691284%, 35.317993%)" offset="0.367188"/><stop stop-opacity="1" stop-color="rgb(48.223877%, 61.875916%, 35.462952%)" offset="0.371094"/><stop stop-opacity="1" stop-color="rgb(48.422241%, 62.060547%, 35.60791%)" offset="0.375"/><stop stop-opacity="1" stop-color="rgb(48.620605%, 62.243652%, 35.752869%)" offset="0.378906"/><stop stop-opacity="1" stop-color="rgb(48.81897%, 62.428284%, 35.897827%)" offset="0.382812"/><stop stop-opacity="1" stop-color="rgb(49.015808%, 62.611389%, 36.042786%)" offset="0.386719"/><stop stop-opacity="1" stop-color="rgb(49.214172%, 62.796021%, 36.187744%)" offset="0.390625"/><stop stop-opacity="1" stop-color="rgb(49.411011%, 62.979126%, 36.332703%)" offset="0.394531"/><stop stop-opacity="1" stop-color="rgb(49.609375%, 63.163757%, 36.477661%)" offset="0.398438"/><stop stop-opacity="1" stop-color="rgb(49.807739%, 63.346863%, 36.62262%)" offset="0.402344"/><stop stop-opacity="1" stop-color="rgb(50.006104%, 63.531494%, 36.767578%)" offset="0.40625"/><stop stop-opacity="1" stop-color="rgb(50.202942%, 63.7146%, 36.912537%)" offset="0.410156"/><stop stop-opacity="1" stop-color="rgb(50.401306%, 63.899231%, 37.057495%)" offset="0.414062"/><stop stop-opacity="1" stop-color="rgb(50.59967%, 64.083862%, 37.202454%)" offset="0.417969"/><stop stop-opacity="1" stop-color="rgb(50.798035%, 64.268494%, 37.347412%)" offset="0.421875"/><stop stop-opacity="1" stop-color="rgb(50.994873%, 64.451599%, 37.492371%)" offset="0.425781"/><stop stop-opacity="1" stop-color="rgb(51.193237%, 64.63623%, 37.637329%)" offset="0.429688"/><stop stop-opacity="1" stop-color="rgb(51.391602%, 64.819336%, 37.782288%)" offset="0.433594"/><stop stop-opacity="1" stop-color="rgb(51.589966%, 65.003967%, 37.927246%)" offset="0.4375"/><stop stop-opacity="1" stop-color="rgb(51.786804%, 65.187073%, 38.072205%)" offset="0.441406"/><stop stop-opacity="1" stop-color="rgb(51.985168%, 65.371704%, 38.217163%)" offset="0.445313"/><stop stop-opacity="1" stop-color="rgb(52.182007%, 65.55481%, 38.362122%)" offset="0.449219"/><stop stop-opacity="1" stop-color="rgb(52.380371%, 65.739441%, 38.50708%)" offset="0.453125"/><stop stop-opacity="1" stop-color="rgb(52.578735%, 65.922546%, 38.652039%)" offset="0.457031"/><stop stop-opacity="1" stop-color="rgb(52.7771%, 66.107178%, 38.796997%)" offset="0.460938"/><stop stop-opacity="1" stop-color="rgb(52.973938%, 66.291809%, 38.941956%)" offset="0.464844"/><stop stop-opacity="1" stop-color="rgb(53.172302%, 66.47644%, 39.086914%)" offset="0.46875"/><stop stop-opacity="1" stop-color="rgb(53.370667%, 66.659546%, 39.231873%)" offset="0.472656"/><stop stop-opacity="1" stop-color="rgb(53.569031%, 66.844177%, 39.376831%)" offset="0.476562"/><stop stop-opacity="1" stop-color="rgb(53.765869%, 67.027283%, 39.52179%)" offset="0.480469"/><stop stop-opacity="1" stop-color="rgb(53.964233%, 67.211914%, 39.666748%)" offset="0.484375"/><stop stop-opacity="1" stop-color="rgb(54.161072%, 67.39502%, 39.811707%)" offset="0.488281"/><stop stop-opacity="1" stop-color="rgb(54.359436%, 67.579651%, 39.956665%)" offset="0.492188"/><stop stop-opacity="1" stop-color="rgb(54.5578%, 67.762756%, 40.101624%)" offset="0.496094"/><stop stop-opacity="1" stop-color="rgb(54.756165%, 67.947388%, 40.246582%)" offset="0.5"/><stop stop-opacity="1" stop-color="rgb(54.953003%, 68.130493%, 40.391541%)" offset="0.503906"/><stop stop-opacity="1" stop-color="rgb(55.151367%, 68.315125%, 40.536499%)" offset="0.507812"/><stop stop-opacity="1" stop-color="rgb(55.349731%, 68.49823%, 40.681458%)" offset="0.511719"/><stop stop-opacity="1" stop-color="rgb(55.548096%, 68.682861%, 40.826416%)" offset="0.515625"/><stop stop-opacity="1" stop-color="rgb(55.744934%, 68.867493%, 40.971375%)" offset="0.519531"/><stop stop-opacity="1" stop-color="rgb(55.943298%, 69.052124%, 41.116333%)" offset="0.523438"/><stop stop-opacity="1" stop-color="rgb(56.141663%, 69.235229%, 41.261292%)" offset="0.527344"/><stop stop-opacity="1" stop-color="rgb(56.340027%, 69.419861%, 41.40625%)" offset="0.53125"/><stop stop-opacity="1" stop-color="rgb(56.536865%, 69.602966%, 41.551208%)" offset="0.535156"/><stop stop-opacity="1" stop-color="rgb(56.735229%, 69.787598%, 41.696167%)" offset="0.539062"/><stop stop-opacity="1" stop-color="rgb(56.932068%, 69.970703%, 41.841125%)" offset="0.542969"/><stop stop-opacity="1" stop-color="rgb(57.130432%, 70.155334%, 41.986084%)" offset="0.546875"/><stop stop-opacity="1" stop-color="rgb(57.328796%, 70.33844%, 42.131042%)" offset="0.550781"/><stop stop-opacity="1" stop-color="rgb(57.527161%, 70.523071%, 42.276001%)" offset="0.554688"/><stop stop-opacity="1" stop-color="rgb(57.723999%, 70.706177%, 42.420959%)" offset="0.558594"/><stop stop-opacity="1" stop-color="rgb(57.922363%, 70.890808%, 42.565918%)" offset="0.5625"/><stop stop-opacity="1" stop-color="rgb(58.120728%, 71.075439%, 42.710876%)" offset="0.566406"/><stop stop-opacity="1" stop-color="rgb(58.319092%, 71.260071%, 42.855835%)" offset="0.570312"/><stop stop-opacity="1" stop-color="rgb(58.51593%, 71.443176%, 43.000793%)" offset="0.574219"/><stop stop-opacity="1" stop-color="rgb(58.714294%, 71.627808%, 43.145752%)" offset="0.578125"/><stop stop-opacity="1" stop-color="rgb(58.912659%, 71.810913%, 43.29071%)" offset="0.582031"/><stop stop-opacity="1" stop-color="rgb(59.111023%, 71.995544%, 43.435669%)" offset="0.585938"/><stop stop-opacity="1" stop-color="rgb(59.307861%, 72.17865%, 43.580627%)" offset="0.589844"/><stop stop-opacity="1" stop-color="rgb(59.506226%, 72.363281%, 43.725586%)" offset="0.59375"/><stop stop-opacity="1" stop-color="rgb(59.703064%, 72.546387%, 43.870544%)" offset="0.597656"/><stop stop-opacity="1" stop-color="rgb(59.901428%, 72.731018%, 44.015503%)" offset="0.601563"/><stop stop-opacity="1" stop-color="rgb(60.099792%, 72.914124%, 44.160461%)" offset="0.605469"/><stop stop-opacity="1" stop-color="rgb(60.298157%, 73.098755%, 44.30542%)" offset="0.609375"/><stop stop-opacity="1" stop-color="rgb(60.494995%, 73.283386%, 44.450378%)" offset="0.613281"/><stop stop-opacity="1" stop-color="rgb(60.693359%, 73.468018%, 44.595337%)" offset="0.617188"/><stop stop-opacity="1" stop-color="rgb(60.891724%, 73.651123%, 44.740295%)" offset="0.621094"/><stop stop-opacity="1" stop-color="rgb(61.090088%, 73.835754%, 44.885254%)" offset="0.625"/><stop stop-opacity="1" stop-color="rgb(61.286926%, 74.01886%, 45.030212%)" offset="0.628906"/><stop stop-opacity="1" stop-color="rgb(61.485291%, 74.203491%, 45.175171%)" offset="0.632812"/><stop stop-opacity="1" stop-color="rgb(61.682129%, 74.386597%, 45.320129%)" offset="0.636719"/><stop stop-opacity="1" stop-color="rgb(61.880493%, 74.571228%, 45.465088%)" offset="0.640625"/><stop stop-opacity="1" stop-color="rgb(62.078857%, 74.754333%, 45.610046%)" offset="0.644531"/><stop stop-opacity="1" stop-color="rgb(62.277222%, 74.938965%, 45.755005%)" offset="0.648438"/><stop stop-opacity="1" stop-color="rgb(62.47406%, 75.12207%, 45.899963%)" offset="0.652344"/><stop stop-opacity="1" stop-color="rgb(62.672424%, 75.306702%, 46.044922%)" offset="0.65625"/><stop stop-opacity="1" stop-color="rgb(62.870789%, 75.489807%, 46.18988%)" offset="0.660156"/><stop stop-opacity="1" stop-color="rgb(63.069153%, 75.674438%, 46.334839%)" offset="0.664062"/><stop stop-opacity="1" stop-color="rgb(63.265991%, 75.85907%, 46.479797%)" offset="0.667969"/><stop stop-opacity="1" stop-color="rgb(63.464355%, 76.043701%, 46.624756%)" offset="0.671875"/><stop stop-opacity="1" stop-color="rgb(63.66272%, 76.226807%, 46.769714%)" offset="0.675781"/><stop stop-opacity="1" stop-color="rgb(63.861084%, 76.411438%, 46.914673%)" offset="0.679688"/><stop stop-opacity="1" stop-color="rgb(64.057922%, 76.594543%, 47.059631%)" offset="0.683594"/><stop stop-opacity="1" stop-color="rgb(64.256287%, 76.779175%, 47.20459%)" offset="0.6875"/><stop stop-opacity="1" stop-color="rgb(64.453125%, 76.96228%, 47.349548%)" offset="0.691406"/><stop stop-opacity="1" stop-color="rgb(64.651489%, 77.146912%, 47.494507%)" offset="0.695313"/><stop stop-opacity="1" stop-color="rgb(64.849854%, 77.330017%, 47.639465%)" offset="0.699219"/><stop stop-opacity="1" stop-color="rgb(65.048218%, 77.514648%, 47.784424%)" offset="0.703125"/><stop stop-opacity="1" stop-color="rgb(65.245056%, 77.697754%, 47.929382%)" offset="0.707031"/><stop stop-opacity="1" stop-color="rgb(65.44342%, 77.882385%, 48.074341%)" offset="0.710938"/><stop stop-opacity="1" stop-color="rgb(65.641785%, 78.067017%, 48.219299%)" offset="0.714844"/><stop stop-opacity="1" stop-color="rgb(65.840149%, 78.251648%, 48.364258%)" offset="0.71875"/><stop stop-opacity="1" stop-color="rgb(66.036987%, 78.434753%, 48.509216%)" offset="0.722656"/><stop stop-opacity="1" stop-color="rgb(66.235352%, 78.619385%, 48.654175%)" offset="0.726563"/><stop stop-opacity="1" stop-color="rgb(66.433716%, 78.80249%, 48.799133%)" offset="0.730469"/><stop stop-opacity="1" stop-color="rgb(66.63208%, 78.987122%, 48.944092%)" offset="0.734375"/><stop stop-opacity="1" stop-color="rgb(66.828918%, 79.170227%, 49.08905%)" offset="0.738281"/><stop stop-opacity="1" stop-color="rgb(67.027283%, 79.354858%, 49.234009%)" offset="0.742188"/><stop stop-opacity="1" stop-color="rgb(67.224121%, 79.537964%, 49.378967%)" offset="0.746094"/><stop stop-opacity="1" stop-color="rgb(67.422485%, 79.722595%, 49.523926%)" offset="0.75"/><stop stop-opacity="1" stop-color="rgb(67.62085%, 79.905701%, 49.668884%)" offset="0.753906"/><stop stop-opacity="1" stop-color="rgb(67.819214%, 80.090332%, 49.813843%)" offset="0.757812"/><stop stop-opacity="1" stop-color="rgb(68.016052%, 80.273438%, 49.958801%)" offset="0.761719"/><stop stop-opacity="1" stop-color="rgb(68.214417%, 80.458069%, 50.10376%)" offset="0.765625"/><stop stop-opacity="1" stop-color="rgb(68.412781%, 80.6427%, 50.248718%)" offset="0.769531"/><stop stop-opacity="1" stop-color="rgb(68.611145%, 80.827332%, 50.393677%)" offset="0.773438"/><stop stop-opacity="1" stop-color="rgb(68.807983%, 81.010437%, 50.538635%)" offset="0.777344"/><stop stop-opacity="1" stop-color="rgb(69.006348%, 81.195068%, 50.683594%)" offset="0.78125"/><stop stop-opacity="1" stop-color="rgb(69.203186%, 81.378174%, 50.828552%)" offset="0.785156"/><stop stop-opacity="1" stop-color="rgb(69.40155%, 81.562805%, 50.973511%)" offset="0.789063"/><stop stop-opacity="1" stop-color="rgb(69.404602%, 81.565857%, 50.976562%)" offset="0.796875"/><stop stop-opacity="1" stop-color="rgb(69.40918%, 81.568909%, 50.979614%)" offset="0.8125"/><stop stop-opacity="1" stop-color="rgb(69.40918%, 81.568909%, 50.979614%)" offset="0.875"/><stop stop-opacity="1" stop-color="rgb(69.40918%, 81.568909%, 50.979614%)" offset="0.969678"/><stop stop-opacity="1" stop-color="rgb(69.40918%, 81.568909%, 50.979614%)" offset="1"/></linearGradient><clipPath id="509a1ee422"><path d="M 115.152344 159.496094 L 238.320312 159.496094 L 238.320312 215.503906 L 115.152344 215.503906 Z M 115.152344 159.496094 " clip-rule="nonzero"/></clipPath><clipPath id="5352184861"><path d="M 143.15625 159.496094 L 210.21875 159.496094 C 225.683594 159.496094 238.222656 172.035156 238.222656 187.5 C 238.222656 202.964844 225.683594 215.503906 210.21875 215.503906 L 143.15625 215.503906 C 127.691406 215.503906 115.152344 202.964844 115.152344 187.5 C 115.152344 172.035156 127.691406 159.496094 143.15625 159.496094 Z M 143.15625 159.496094 " clip-rule="nonzero"/></clipPath><clipPath id="7618b7601a"><path d="M 0.152344 0.496094 L 123.320312 0.496094 L 123.320312 56.503906 L 0.152344 56.503906 Z M 0.152344 0.496094 " clip-rule="nonzero"/></clipPath><clipPath id="494243af3c"><path d="M 28.15625 0.496094 L 95.21875 0.496094 C 110.683594 0.496094 123.222656 13.035156 123.222656 28.5 C 123.222656 43.964844 110.683594 56.503906 95.21875 56.503906 L 28.15625 56.503906 C 12.691406 56.503906 0.152344 43.964844 0.152344 28.5 C 0.152344 13.035156 12.691406 0.496094 28.15625 0.496094 Z M 28.15625 0.496094 " clip-rule="nonzero"/></clipPath><clipPath id="fe55c09a6c"><rect x="0" width="124" y="0" height="57"/></clipPath><clipPath id="98ac22d66c"><path d="M 166 169.199219 L 176.753906 169.199219 L 176.753906 187.199219 L 166 187.199219 Z M 166 169.199219 " clip-rule="nonzero"/></clipPath><clipPath id="ce04eda770"><path d="M 158.003906 170 L 166 170 L 166 185 L 158.003906 185 Z M 158.003906 170 " clip-rule="nonzero"/></clipPath><clipPath id="bfa2d07599"><path d="M 159.898438 170.3125 C 159.726562 171.191406 160.164062 172.097656 160.796875 172.734375 C 161.429688 173.367188 162.242188 173.789062 163.015625 174.238281 C 163.789062 174.691406 164.5625 175.207031 165.046875 175.960938 C 165.472656 176.617188 165.644531 177.402344 165.734375 178.175781 C 165.839844 179.113281 165.824219 180.101562 165.527344 180.988281 C 165.308594 180.453125 165.027344 179.941406 164.703125 179.464844 C 164.070312 178.527344 163.289062 177.699219 162.515625 176.878906 C 161.609375 175.914062 160.703125 174.953125 159.796875 173.992188 C 160.734375 175.75 162.1875 177.167969 163.417969 178.738281 C 164.648438 180.308594 165.695312 182.183594 165.582031 184.171875 C 165.488281 183.15625 164.664062 182.347656 163.765625 181.851562 C 162.871094 181.359375 161.867188 181.085938 160.980469 180.574219 C 159.308594 179.59375 158.183594 177.738281 158.097656 175.808594 C 158.007812 173.851562 158.902344 171.996094 159.898438 170.3125 Z M 159.898438 170.3125 " clip-rule="nonzero"/></clipPath><linearGradient x1="-1204.20996" gradientTransform="matrix(-0.0182492, 0, 0, 0.0182492, 139.966767, 169.199536)" y1="60.999961" x2="-1204.20996" gradientUnits="userSpaceOnUse" y2="820.499985" id="bdd7b173b8"><stop stop-opacity="1" stop-color="rgb(3.622437%, 45.507812%, 27.520752%)" offset="0"/><stop stop-opacity="1" stop-color="rgb(3.738403%, 45.433044%, 27.610779%)" offset="0.0625"/><stop stop-opacity="1" stop-color="rgb(3.970337%, 45.283508%, 27.792358%)" offset="0.125"/><stop stop-opacity="1" stop-color="rgb(4.203796%, 45.133972%, 27.972412%)" offset="0.1875"/><stop stop-opacity="1" stop-color="rgb(4.437256%, 44.984436%, 28.153992%)" offset="0.25"/><stop stop-opacity="1" stop-color="rgb(4.669189%, 44.8349%, 28.334045%)" offset="0.3125"/><stop stop-opacity="1" stop-color="rgb(4.902649%, 44.683838%, 28.515625%)" offset="0.375"/><stop stop-opacity="1" stop-color="rgb(5.134583%, 44.534302%, 28.695679%)" offset="0.4375"/><stop stop-opacity="1" stop-color="rgb(5.368042%, 44.384766%, 28.877258%)" offset="0.5"/><stop stop-opacity="1" stop-color="rgb(5.601501%, 44.235229%, 29.057312%)" offset="0.5625"/><stop stop-opacity="1" stop-color="rgb(5.833435%, 44.085693%, 29.237366%)" offset="0.625"/><stop stop-opacity="1" stop-color="rgb(6.066895%, 43.934631%, 29.418945%)" offset="0.6875"/><stop stop-opacity="1" stop-color="rgb(6.298828%, 43.785095%, 29.598999%)" offset="0.75"/><stop stop-opacity="1" stop-color="rgb(6.532288%, 43.635559%, 29.780579%)" offset="0.8125"/><stop stop-opacity="1" stop-color="rgb(6.765747%, 43.486023%, 29.960632%)" offset="0.875"/><stop stop-opacity="1" stop-color="rgb(6.997681%, 43.336487%, 30.142212%)" offset="0.9375"/><stop stop-opacity="1" stop-color="rgb(7.23114%, 43.186951%, 30.322266%)" offset="1"/></linearGradient></defs><rect x="-37.5" width="450" fill="#ffffff" y="-37.499999" height="449.999989" fill-opacity="1"/><rect x="-37.5" width="450" fill="#f4efe9" y="-37.499999" height="449.999989" fill-opacity="1"/><g clip-path="url(#edca58c26f)"><g clip-path="url(#ecf10936be)"><path fill="url(#6a33dbd465)" d="M 141.105469 90.417969 L 141.105469 284.632812 L 335.363281 284.632812 L 335.363281 90.417969 Z M 141.105469 90.417969 " fill-rule="nonzero"/></g></g><g clip-path="url(#509a1ee422)"><g clip-path="url(#5352184861)"><g transform="matrix(1, 0, 0, 1, 115, 159)"><g clip-path="url(#fe55c09a6c)"><g clip-path="url(#7618b7601a)"><g clip-path="url(#494243af3c)"><path fill="#f4efe9" d="M 0.152344 0.496094 L 123.320312 0.496094 L 123.320312 56.503906 L 0.152344 56.503906 Z M 0.152344 0.496094 " fill-opacity="1" fill-rule="nonzero"/></g></g></g></g></g></g><g fill="#8f1eae" fill-opacity="1"><g transform="translate(58.945232, 188.624841)"><g><path d="M 0.71875 0 L 8.703125 -21.859375 L 13.203125 -21.859375 L 21.203125 0 L 16.953125 0 L 15.203125 -5.0625 L 6.6875 -5.0625 L 4.90625 0 Z M 7.78125 -8.171875 L 14.109375 -8.171875 L 10.921875 -17.265625 Z M 7.78125 -8.171875 "/></g></g></g><g fill="#8f1eae" fill-opacity="1"><g transform="translate(79.26837, 188.624841)"><g><path d="M 8.578125 -4.625 C 7.835938 -4.625 7.144531 -4.707031 6.5 -4.875 L 5.34375 -3.71875 C 5.695312 -3.53125 6.175781 -3.375 6.78125 -3.25 C 7.382812 -3.125 8.359375 -3 9.703125 -2.875 C 11.765625 -2.6875 13.265625 -2.195312 14.203125 -1.40625 C 15.140625 -0.613281 15.609375 0.476562 15.609375 1.875 C 15.609375 2.789062 15.359375 3.660156 14.859375 4.484375 C 14.359375 5.304688 13.585938 5.972656 12.546875 6.484375 C 11.503906 6.992188 10.171875 7.25 8.546875 7.25 C 6.347656 7.25 4.570312 6.835938 3.21875 6.015625 C 1.863281 5.191406 1.1875 3.957031 1.1875 2.3125 C 1.1875 0.914062 1.863281 -0.289062 3.21875 -1.3125 C 2.800781 -1.5 2.441406 -1.695312 2.140625 -1.90625 C 1.835938 -2.113281 1.570312 -2.332031 1.34375 -2.5625 L 1.34375 -3.28125 L 4.0625 -6.15625 C 2.851562 -7.21875 2.25 -8.578125 2.25 -10.234375 C 2.25 -11.273438 2.503906 -12.222656 3.015625 -13.078125 C 3.523438 -13.929688 4.25 -14.609375 5.1875 -15.109375 C 6.125 -15.609375 7.253906 -15.859375 8.578125 -15.859375 C 9.453125 -15.859375 10.265625 -15.734375 11.015625 -15.484375 L 16.890625 -15.484375 L 16.890625 -13.046875 L 14.234375 -12.859375 C 14.648438 -12.066406 14.859375 -11.191406 14.859375 -10.234375 C 14.859375 -9.191406 14.609375 -8.242188 14.109375 -7.390625 C 13.609375 -6.546875 12.882812 -5.875 11.9375 -5.375 C 10.988281 -4.875 9.867188 -4.625 8.578125 -4.625 Z M 8.578125 -7.6875 C 9.390625 -7.6875 10.0625 -7.898438 10.59375 -8.328125 C 11.125 -8.765625 11.390625 -9.390625 11.390625 -10.203125 C 11.390625 -11.015625 11.125 -11.640625 10.59375 -12.078125 C 10.0625 -12.515625 9.390625 -12.734375 8.578125 -12.734375 C 7.734375 -12.734375 7.050781 -12.515625 6.53125 -12.078125 C 6.007812 -11.640625 5.75 -11.015625 5.75 -10.203125 C 5.75 -9.390625 6.007812 -8.765625 6.53125 -8.328125 C 7.050781 -7.898438 7.734375 -7.6875 8.578125 -7.6875 Z M 4.84375 1.90625 C 4.84375 2.675781 5.203125 3.253906 5.921875 3.640625 C 6.640625 4.023438 7.515625 4.21875 8.546875 4.21875 C 9.546875 4.21875 10.359375 4.015625 10.984375 3.609375 C 11.609375 3.203125 11.921875 2.65625 11.921875 1.96875 C 11.921875 1.40625 11.71875 0.9375 11.3125 0.5625 C 10.90625 0.1875 10.097656 -0.0390625 8.890625 -0.125 C 8.046875 -0.1875 7.257812 -0.28125 6.53125 -0.40625 C 5.925781 -0.0703125 5.492188 0.289062 5.234375 0.6875 C 4.972656 1.082031 4.84375 1.488281 4.84375 1.90625 Z M 4.84375 1.90625 "/></g></g></g><g fill="#8f1eae" fill-opacity="1"><g transform="translate(95.470628, 188.624841)"><g><path d="M 2.03125 0 L 2.03125 -15.484375 L 5.59375 -15.484375 L 5.96875 -12.578125 C 6.53125 -13.578125 7.289062 -14.375 8.25 -14.96875 C 9.21875 -15.5625 10.359375 -15.859375 11.671875 -15.859375 L 11.671875 -11.640625 L 10.546875 -11.640625 C 9.671875 -11.640625 8.890625 -11.503906 8.203125 -11.234375 C 7.523438 -10.960938 6.992188 -10.492188 6.609375 -9.828125 C 6.222656 -9.160156 6.03125 -8.238281 6.03125 -7.0625 L 6.03125 0 Z M 2.03125 0 "/></g></g></g><g fill="#007a3f" fill-opacity="1"><g transform="translate(105.99601, 188.624841)"><g><path d="M 9.453125 0.375 C 7.960938 0.375 6.617188 0.03125 5.421875 -0.65625 C 4.222656 -1.34375 3.273438 -2.296875 2.578125 -3.515625 C 1.878906 -4.734375 1.53125 -6.144531 1.53125 -7.75 C 1.53125 -9.34375 1.882812 -10.75 2.59375 -11.96875 C 3.300781 -13.1875 4.253906 -14.140625 5.453125 -14.828125 C 6.648438 -15.515625 7.992188 -15.859375 9.484375 -15.859375 C 10.960938 -15.859375 12.300781 -15.515625 13.5 -14.828125 C 14.695312 -14.140625 15.644531 -13.1875 16.34375 -11.96875 C 17.039062 -10.75 17.390625 -9.34375 17.390625 -7.75 C 17.390625 -6.144531 17.039062 -4.734375 16.34375 -3.515625 C 15.644531 -2.296875 14.691406 -1.34375 13.484375 -0.65625 C 12.273438 0.03125 10.929688 0.375 9.453125 0.375 Z M 9.453125 -3.09375 C 10.492188 -3.09375 11.398438 -3.484375 12.171875 -4.265625 C 12.941406 -5.046875 13.328125 -6.207031 13.328125 -7.75 C 13.328125 -9.28125 12.941406 -10.4375 12.171875 -11.21875 C 11.398438 -12 10.503906 -12.390625 9.484375 -12.390625 C 8.421875 -12.390625 7.507812 -12 6.75 -11.21875 C 6 -10.4375 5.625 -9.28125 5.625 -7.75 C 5.625 -6.207031 6 -5.046875 6.75 -4.265625 C 7.507812 -3.484375 8.410156 -3.09375 9.453125 -3.09375 Z M 9.453125 -3.09375 "/></g></g></g><g fill="#8f1eae" fill-opacity="1"><g transform="translate(123.363196, 188.624841)"><g><path d="M 2.03125 0 L 2.03125 -22.484375 L 6.03125 -22.484375 L 6.03125 0 Z M 2.03125 0 "/></g></g></g><g fill="#8f1eae" fill-opacity="1"><g transform="translate(129.887644, 188.624841)"><g><path d="M 4.1875 -17.890625 C 3.457031 -17.890625 2.859375 -18.109375 2.390625 -18.546875 C 1.921875 -18.984375 1.6875 -19.535156 1.6875 -20.203125 C 1.6875 -20.867188 1.921875 -21.414062 2.390625 -21.84375 C 2.859375 -22.269531 3.457031 -22.484375 4.1875 -22.484375 C 4.914062 -22.484375 5.515625 -22.269531 5.984375 -21.84375 C 6.453125 -21.414062 6.6875 -20.867188 6.6875 -20.203125 C 6.6875 -19.535156 6.453125 -18.984375 5.984375 -18.546875 C 5.515625 -18.109375 4.914062 -17.890625 4.1875 -17.890625 Z M 2.1875 0 L 2.1875 -15.484375 L 6.1875 -15.484375 L 6.1875 0 Z M 2.1875 0 "/></g></g></g><g fill="#8f1eae" fill-opacity="1"><g transform="translate(136.661837, 188.624841)"><g><path d="M 0.5625 0 L 6.1875 -7.75 L 0.5625 -15.484375 L 4.84375 -15.484375 L 8.765625 -9.984375 L 12.671875 -15.484375 L 16.984375 -15.484375 L 11.328125 -7.75 L 16.984375 0 L 12.671875 0 L 8.765625 -5.5 L 4.84375 0 Z M 0.5625 0 "/></g></g></g><g fill="#2d473e" fill-opacity="1"><g transform="translate(152.624913, 188.624841)"><g/></g></g><g fill="#2d473e" fill-opacity="1"><g transform="translate(158.493763, 188.624841)"><g/></g></g><g fill="#2d473e" fill-opacity="1"><g transform="translate(164.362614, 188.624841)"><g/></g></g><g fill="#2d473e" fill-opacity="1"><g transform="translate(170.231464, 188.624841)"><g/></g></g><g fill="#2d473e" fill-opacity="1"><g transform="translate(176.100314, 188.624841)"><g/></g></g><g fill="#000000" fill-opacity="1"><g transform="translate(181.98038, 188.624841)"><g><path d="M 11.671875 0.375 C 9.609375 0.375 7.804688 -0.09375 6.265625 -1.03125 C 4.734375 -1.96875 3.539062 -3.273438 2.6875 -4.953125 C 1.832031 -6.628906 1.40625 -8.578125 1.40625 -10.796875 C 1.40625 -13.046875 1.847656 -15.03125 2.734375 -16.75 C 3.617188 -18.46875 4.875 -19.8125 6.5 -20.78125 C 8.132812 -21.75 10.078125 -22.234375 12.328125 -22.234375 C 14.890625 -22.234375 17.015625 -21.617188 18.703125 -20.390625 C 20.390625 -19.160156 21.484375 -17.460938 21.984375 -15.296875 L 17.515625 -15.296875 C 17.179688 -16.316406 16.578125 -17.113281 15.703125 -17.6875 C 14.828125 -18.257812 13.703125 -18.546875 12.328125 -18.546875 C 10.140625 -18.546875 8.453125 -17.851562 7.265625 -16.46875 C 6.085938 -15.082031 5.5 -13.179688 5.5 -10.765625 C 5.5 -8.359375 6.082031 -6.492188 7.25 -5.171875 C 8.425781 -3.847656 10.023438 -3.1875 12.046875 -3.1875 C 14.023438 -3.1875 15.519531 -3.722656 16.53125 -4.796875 C 17.539062 -5.867188 18.148438 -7.273438 18.359375 -9.015625 L 12.828125 -9.015625 L 12.828125 -12.015625 L 22.390625 -12.015625 L 22.390625 0 L 18.703125 0 L 18.390625 -2.875 C 17.679688 -1.832031 16.796875 -1.03125 15.734375 -0.46875 C 14.671875 0.09375 13.316406 0.375 11.671875 0.375 Z M 11.671875 0.375 "/></g></g></g><g fill="#000000" fill-opacity="1"><g transform="translate(204.551274, 188.624841)"><g><path d="M 2.03125 0 L 2.03125 -15.484375 L 5.59375 -15.484375 L 5.96875 -12.578125 C 6.53125 -13.578125 7.289062 -14.375 8.25 -14.96875 C 9.21875 -15.5625 10.359375 -15.859375 11.671875 -15.859375 L 11.671875 -11.640625 L 10.546875 -11.640625 C 9.671875 -11.640625 8.890625 -11.503906 8.203125 -11.234375 C 7.523438 -10.960938 6.992188 -10.492188 6.609375 -9.828125 C 6.222656 -9.160156 6.03125 -8.238281 6.03125 -7.0625 L 6.03125 0 Z M 2.03125 0 "/></g></g></g><g fill="#000000" fill-opacity="1"><g transform="translate(215.07169, 188.624841)"><g><path d="M 9.453125 0.375 C 7.960938 0.375 6.617188 0.03125 5.421875 -0.65625 C 4.222656 -1.34375 3.273438 -2.296875 2.578125 -3.515625 C 1.878906 -4.734375 1.53125 -6.144531 1.53125 -7.75 C 1.53125 -9.34375 1.882812 -10.75 2.59375 -11.96875 C 3.300781 -13.1875 4.253906 -14.140625 5.453125 -14.828125 C 6.648438 -15.515625 7.992188 -15.859375 9.484375 -15.859375 C 10.960938 -15.859375 12.300781 -15.515625 13.5 -14.828125 C 14.695312 -14.140625 15.644531 -13.1875 16.34375 -11.96875 C 17.039062 -10.75 17.390625 -9.34375 17.390625 -7.75 C 17.390625 -6.144531 17.039062 -4.734375 16.34375 -3.515625 C 15.644531 -2.296875 14.691406 -1.34375 13.484375 -0.65625 C 12.273438 0.03125 10.929688 0.375 9.453125 0.375 Z M 9.453125 -3.09375 C 10.492188 -3.09375 11.398438 -3.484375 12.171875 -4.265625 C 12.941406 -5.046875 13.328125 -6.207031 13.328125 -7.75 C 13.328125 -9.28125 12.941406 -10.4375 12.171875 -11.21875 C 11.398438 -12 10.503906 -12.390625 9.484375 -12.390625 C 8.421875 -12.390625 7.507812 -12 6.75 -11.21875 C 6 -10.4375 5.625 -9.28125 5.625 -7.75 C 5.625 -6.207031 6 -5.046875 6.75 -4.265625 C 7.507812 -3.484375 8.410156 -3.09375 9.453125 -3.09375 Z M 9.453125 -3.09375 "/></g></g></g><g fill="#000000" fill-opacity="1"><g transform="translate(232.429046, 188.624841)"><g><path d="M 7.828125 0.375 C 5.898438 0.375 4.410156 -0.226562 3.359375 -1.4375 C 2.304688 -2.644531 1.78125 -4.414062 1.78125 -6.75 L 1.78125 -15.484375 L 5.75 -15.484375 L 5.75 -7.125 C 5.75 -5.789062 6.019531 -4.769531 6.5625 -4.0625 C 7.101562 -3.351562 7.953125 -3 9.109375 -3 C 10.210938 -3 11.125 -3.394531 11.84375 -4.1875 C 12.5625 -4.976562 12.921875 -6.082031 12.921875 -7.5 L 12.921875 -15.484375 L 16.921875 -15.484375 L 16.921875 0 L 13.390625 0 L 13.078125 -2.625 C 12.597656 -1.707031 11.90625 -0.976562 11 -0.4375 C 10.09375 0.101562 9.035156 0.375 7.828125 0.375 Z M 7.828125 0.375 "/></g></g></g><g fill="#000000" fill-opacity="1"><g transform="translate(249.848841, 188.624841)"><g><path d="M 2.03125 6.875 L 2.03125 -15.484375 L 5.59375 -15.484375 L 6.03125 -13.265625 C 6.53125 -13.953125 7.1875 -14.554688 8 -15.078125 C 8.820312 -15.597656 9.890625 -15.859375 11.203125 -15.859375 C 12.660156 -15.859375 13.960938 -15.503906 15.109375 -14.796875 C 16.253906 -14.085938 17.160156 -13.117188 17.828125 -11.890625 C 18.492188 -10.660156 18.828125 -9.269531 18.828125 -7.71875 C 18.828125 -6.15625 18.492188 -4.765625 17.828125 -3.546875 C 17.160156 -2.328125 16.253906 -1.367188 15.109375 -0.671875 C 13.960938 0.0234375 12.660156 0.375 11.203125 0.375 C 10.035156 0.375 9.015625 0.15625 8.140625 -0.28125 C 7.273438 -0.71875 6.570312 -1.332031 6.03125 -2.125 L 6.03125 6.875 Z M 10.359375 -3.125 C 11.628906 -3.125 12.679688 -3.550781 13.515625 -4.40625 C 14.347656 -5.257812 14.765625 -6.363281 14.765625 -7.71875 C 14.765625 -9.0625 14.347656 -10.171875 13.515625 -11.046875 C 12.679688 -11.921875 11.628906 -12.359375 10.359375 -12.359375 C 9.066406 -12.359375 8.007812 -11.925781 7.1875 -11.0625 C 6.375 -10.195312 5.96875 -9.09375 5.96875 -7.75 C 5.96875 -6.394531 6.375 -5.285156 7.1875 -4.421875 C 8.007812 -3.554688 9.066406 -3.125 10.359375 -3.125 Z M 10.359375 -3.125 "/></g></g></g><g clip-path="url(#98ac22d66c)"><path fill="#8f1eae" d="M 174.183594 169.199219 C 174.414062 170.359375 173.832031 171.558594 172.996094 172.394531 C 172.160156 173.230469 171.09375 173.785156 170.074219 174.382812 C 169.050781 174.980469 168.03125 175.660156 167.390625 176.65625 C 166.832031 177.519531 166.601562 178.554688 166.488281 179.578125 C 166.339844 180.820312 166.359375 182.121094 166.753906 183.289062 C 167.042969 182.582031 167.414062 181.910156 167.839844 181.28125 C 168.675781 180.042969 169.707031 178.949219 170.730469 177.859375 C 171.925781 176.589844 173.121094 175.320312 174.320312 174.050781 C 173.078125 176.375 171.160156 178.246094 169.539062 180.316406 C 167.914062 182.390625 166.53125 184.863281 166.683594 187.492188 C 166.804688 186.148438 167.894531 185.078125 169.078125 184.429688 C 170.265625 183.78125 171.589844 183.417969 172.757812 182.738281 C 174.964844 181.453125 176.445312 179.003906 176.5625 176.453125 C 176.679688 173.875 175.5 171.417969 174.183594 169.199219 Z M 174.183594 169.199219 " fill-opacity="1" fill-rule="nonzero"/></g><g clip-path="url(#ce04eda770)"><g clip-path="url(#bfa2d07599)"><path fill="url(#bdd7b173b8)" d="M 165.839844 170.3125 L 165.839844 184.171875 L 158.007812 184.171875 L 158.007812 170.3125 Z M 165.839844 170.3125 " fill-rule="nonzero"/></g></g><g fill="#007a3f" fill-opacity="1"><g transform="translate(105.196769, 206.779923)"><g><path d="M 5.1875 0.25 C 4.007812 0.25 3.066406 0.132812 2.359375 -0.09375 C 1.660156 -0.332031 1.15625 -0.660156 0.84375 -1.078125 C 0.539062 -1.492188 0.390625 -1.96875 0.390625 -2.5 C 0.390625 -2.875 0.4375 -3.265625 0.53125 -3.671875 C 0.632812 -4.078125 0.726562 -4.429688 0.8125 -4.734375 L 2.34375 -4.390625 C 2.289062 -4.160156 2.238281 -3.914062 2.1875 -3.65625 C 2.132812 -3.40625 2.109375 -3.179688 2.109375 -2.984375 C 2.109375 -2.671875 2.210938 -2.398438 2.421875 -2.171875 C 2.640625 -1.941406 2.992188 -1.765625 3.484375 -1.640625 C 3.984375 -1.515625 4.65625 -1.453125 5.5 -1.453125 L 5.5 -1.421875 L 5.515625 -1.453125 C 6.097656 -1.453125 6.660156 -1.476562 7.203125 -1.53125 C 7.742188 -1.59375 8.257812 -1.707031 8.75 -1.875 C 9.25 -2.050781 9.710938 -2.304688 10.140625 -2.640625 C 10.566406 -2.972656 10.957031 -3.421875 11.3125 -3.984375 L 12.6875 -3.359375 C 12.632812 -3.203125 12.59375 -3.050781 12.5625 -2.90625 C 12.53125 -2.757812 12.515625 -2.644531 12.515625 -2.5625 C 12.515625 -2.28125 12.625 -2.054688 12.84375 -1.890625 C 13.0625 -1.734375 13.472656 -1.65625 14.078125 -1.65625 C 14.390625 -1.65625 14.609375 -1.570312 14.734375 -1.40625 C 14.867188 -1.25 14.9375 -1.050781 14.9375 -0.8125 C 14.9375 -0.5625 14.851562 -0.351562 14.6875 -0.1875 C 14.519531 -0.0195312 14.273438 0.0625 13.953125 0.0625 C 13.222656 0.0625 12.625 -0.0625 12.15625 -0.3125 C 11.6875 -0.570312 11.375 -0.914062 11.21875 -1.34375 C 10.59375 -0.789062 9.753906 -0.382812 8.703125 -0.125 C 7.660156 0.125 6.488281 0.25 5.1875 0.25 Z M 5.34375 -5.34375 C 5.101562 -5.34375 4.898438 -5.425781 4.734375 -5.59375 C 4.566406 -5.757812 4.484375 -5.957031 4.484375 -6.1875 C 4.484375 -6.414062 4.566406 -6.613281 4.734375 -6.78125 C 4.898438 -6.957031 5.101562 -7.046875 5.34375 -7.046875 C 5.570312 -7.046875 5.765625 -6.957031 5.921875 -6.78125 C 6.085938 -6.613281 6.171875 -6.414062 6.171875 -6.1875 C 6.171875 -5.957031 6.085938 -5.757812 5.921875 -5.59375 C 5.765625 -5.425781 5.570312 -5.34375 5.34375 -5.34375 Z M 7.453125 -5.328125 C 7.210938 -5.328125 7.007812 -5.40625 6.84375 -5.5625 C 6.675781 -5.726562 6.59375 -5.929688 6.59375 -6.171875 C 6.59375 -6.398438 6.675781 -6.597656 6.84375 -6.765625 C 7.007812 -6.941406 7.210938 -7.03125 7.453125 -7.03125 C 7.679688 -7.03125 7.875 -6.941406 8.03125 -6.765625 C 8.195312 -6.597656 8.28125 -6.398438 8.28125 -6.171875 C 8.28125 -5.929688 8.195312 -5.726562 8.03125 -5.5625 C 7.875 -5.40625 7.679688 -5.328125 7.453125 -5.328125 Z M 7.453125 -5.328125 "/></g></g></g><g fill="#007a3f" fill-opacity="1"><g transform="translate(119.141761, 206.779923)"><g><path d="M 0 0.0625 L 0.125 -1.65625 C 0.65625 -1.65625 1.023438 -1.710938 1.234375 -1.828125 C 1.441406 -1.941406 1.546875 -2.191406 1.546875 -2.578125 C 1.546875 -2.804688 1.515625 -3.078125 1.453125 -3.390625 C 1.398438 -3.710938 1.320312 -4.039062 1.21875 -4.375 C 1.125 -4.71875 1.023438 -5.035156 0.921875 -5.328125 L 2.609375 -5.796875 C 2.710938 -5.515625 2.8125 -5.191406 2.90625 -4.828125 C 3 -4.460938 3.082031 -4.082031 3.15625 -3.6875 C 3.226562 -3.300781 3.265625 -2.929688 3.265625 -2.578125 C 3.265625 -2.023438 3.175781 -1.570312 3 -1.21875 C 2.832031 -0.875 2.59375 -0.609375 2.28125 -0.421875 C 1.976562 -0.234375 1.628906 -0.101562 1.234375 -0.03125 C 0.847656 0.03125 0.4375 0.0625 0 0.0625 Z M 1.75 -6.796875 C 1.5 -6.796875 1.285156 -6.878906 1.109375 -7.046875 C 0.929688 -7.222656 0.84375 -7.4375 0.84375 -7.6875 C 0.84375 -7.945312 0.929688 -8.164062 1.109375 -8.34375 C 1.285156 -8.519531 1.5 -8.609375 1.75 -8.609375 C 2 -8.609375 2.207031 -8.519531 2.375 -8.34375 C 2.550781 -8.164062 2.640625 -7.945312 2.640625 -7.6875 C 2.640625 -7.4375 2.550781 -7.222656 2.375 -7.046875 C 2.207031 -6.878906 2 -6.796875 1.75 -6.796875 Z M 1.75 -6.796875 "/></g></g></g><g fill="#007a3f" fill-opacity="1"><g transform="translate(123.012656, 206.779923)"><g><path d="M 3.875 0.0625 C 3.113281 0.0625 2.523438 -0.015625 2.109375 -0.171875 C 1.703125 -0.328125 1.414062 -0.566406 1.25 -0.890625 C 1.082031 -1.222656 0.992188 -1.644531 0.984375 -2.15625 L 0.71875 -8.9375 L 2.4375 -8.9375 L 2.6875 -2.96875 C 2.707031 -2.59375 2.75 -2.3125 2.8125 -2.125 C 2.875 -1.9375 2.992188 -1.8125 3.171875 -1.75 C 3.359375 -1.6875 3.632812 -1.65625 4 -1.65625 C 4.300781 -1.65625 4.519531 -1.570312 4.65625 -1.40625 C 4.789062 -1.25 4.859375 -1.050781 4.859375 -0.8125 C 4.859375 -0.5625 4.769531 -0.351562 4.59375 -0.1875 C 4.425781 -0.0195312 4.1875 0.0625 3.875 0.0625 Z M 3.875 0.0625 "/></g></g></g><g fill="#007a3f" fill-opacity="1"><g transform="translate(126.895762, 206.779923)"><g><path d="M 0 0.0625 L 0.125 -1.65625 C 0.320312 -1.65625 0.472656 -1.691406 0.578125 -1.765625 C 0.691406 -1.847656 0.800781 -1.988281 0.90625 -2.1875 C 1.007812 -2.394531 1.15625 -2.675781 1.34375 -3.03125 C 1.75 -3.800781 2.179688 -4.335938 2.640625 -4.640625 C 3.097656 -4.941406 3.546875 -5.09375 3.984375 -5.09375 C 4.429688 -5.09375 4.84375 -4.941406 5.21875 -4.640625 C 5.601562 -4.347656 5.960938 -3.800781 6.296875 -3 C 6.523438 -2.445312 6.757812 -2.082031 7 -1.90625 C 7.238281 -1.738281 7.488281 -1.65625 7.75 -1.65625 C 8.0625 -1.65625 8.28125 -1.570312 8.40625 -1.40625 C 8.539062 -1.25 8.609375 -1.050781 8.609375 -0.8125 C 8.609375 -0.5625 8.519531 -0.351562 8.34375 -0.1875 C 8.175781 -0.0195312 7.9375 0.0625 7.625 0.0625 C 7.269531 0.0625 6.941406 0.0078125 6.640625 -0.09375 C 6.335938 -0.195312 6.085938 -0.351562 5.890625 -0.5625 C 5.753906 -0.351562 5.5625 -0.171875 5.3125 -0.015625 C 5.070312 0.140625 4.785156 0.21875 4.453125 0.21875 C 4.242188 0.21875 4.003906 0.175781 3.734375 0.09375 C 3.460938 0.0195312 3.179688 -0.101562 2.890625 -0.28125 C 2.597656 -0.46875 2.332031 -0.71875 2.09375 -1.03125 C 1.851562 -0.601562 1.578125 -0.3125 1.265625 -0.15625 C 0.960938 -0.0078125 0.539062 0.0625 0 0.0625 Z M 2.796875 -2.484375 C 2.953125 -2.234375 3.175781 -2.003906 3.46875 -1.796875 C 3.757812 -1.585938 4.066406 -1.484375 4.390625 -1.484375 C 4.546875 -1.484375 4.675781 -1.546875 4.78125 -1.671875 C 4.894531 -1.796875 4.898438 -1.984375 4.796875 -2.234375 C 4.742188 -2.367188 4.664062 -2.53125 4.5625 -2.71875 C 4.457031 -2.90625 4.34375 -3.066406 4.21875 -3.203125 C 4.09375 -3.335938 3.957031 -3.40625 3.8125 -3.40625 C 3.644531 -3.40625 3.472656 -3.332031 3.296875 -3.1875 C 3.128906 -3.039062 2.960938 -2.804688 2.796875 -2.484375 Z M 2.796875 -2.484375 "/></g></g></g><g fill="#007a3f" fill-opacity="1"><g transform="translate(134.515444, 206.779923)"><g><path d="M 6.328125 0.21875 C 5.410156 0.21875 4.679688 0.164062 4.140625 0.0625 C 3.597656 -0.03125 3.175781 -0.160156 2.875 -0.328125 C 2.582031 -0.503906 2.359375 -0.703125 2.203125 -0.921875 C 1.898438 -0.492188 1.554688 -0.222656 1.171875 -0.109375 C 0.785156 0.00390625 0.394531 0.0625 0 0.0625 L 0.125 -1.65625 C 0.457031 -1.65625 0.703125 -1.726562 0.859375 -1.875 C 1.015625 -2.03125 1.144531 -2.28125 1.25 -2.625 C 1.351562 -2.976562 1.484375 -3.457031 1.640625 -4.0625 L 3.1875 -3.671875 C 3.019531 -3.015625 2.9375 -2.585938 2.9375 -2.390625 C 2.9375 -2.203125 2.984375 -2.046875 3.078125 -1.921875 C 3.179688 -1.804688 3.398438 -1.710938 3.734375 -1.640625 C 4.046875 -2.128906 4.394531 -2.59375 4.78125 -3.03125 C 5.175781 -3.476562 5.59375 -3.875 6.03125 -4.21875 C 6.476562 -4.5625 6.9375 -4.828125 7.40625 -5.015625 C 7.875 -5.210938 8.351562 -5.3125 8.84375 -5.3125 C 9.65625 -5.3125 10.285156 -5.078125 10.734375 -4.609375 C 11.191406 -4.148438 11.421875 -3.554688 11.421875 -2.828125 C 11.421875 -2.234375 11.25 -1.707031 10.90625 -1.25 C 10.570312 -0.789062 10.03125 -0.429688 9.28125 -0.171875 C 8.539062 0.0859375 7.554688 0.21875 6.328125 0.21875 Z M 8.671875 -3.609375 C 8.316406 -3.609375 7.957031 -3.503906 7.59375 -3.296875 C 7.226562 -3.097656 6.875 -2.832031 6.53125 -2.5 C 6.195312 -2.175781 5.898438 -1.835938 5.640625 -1.484375 C 5.753906 -1.484375 5.882812 -1.484375 6.03125 -1.484375 C 6.957031 -1.484375 7.691406 -1.53125 8.234375 -1.625 C 8.773438 -1.71875 9.15625 -1.851562 9.375 -2.03125 C 9.601562 -2.207031 9.71875 -2.429688 9.71875 -2.703125 C 9.71875 -2.929688 9.632812 -3.140625 9.46875 -3.328125 C 9.300781 -3.515625 9.035156 -3.609375 8.671875 -3.609375 Z M 8.484375 -6.4375 C 8.234375 -6.4375 8.019531 -6.519531 7.84375 -6.6875 C 7.664062 -6.863281 7.578125 -7.078125 7.578125 -7.328125 C 7.578125 -7.585938 7.664062 -7.804688 7.84375 -7.984375 C 8.019531 -8.160156 8.234375 -8.25 8.484375 -8.25 C 8.734375 -8.25 8.941406 -8.160156 9.109375 -7.984375 C 9.285156 -7.804688 9.375 -7.585938 9.375 -7.328125 C 9.375 -7.078125 9.285156 -6.863281 9.109375 -6.6875 C 8.941406 -6.519531 8.734375 -6.4375 8.484375 -6.4375 Z M 8.484375 -6.4375 "/></g></g></g><g fill="#007a3f" fill-opacity="1"><g transform="translate(146.408978, 206.779923)"><g/></g></g><g fill="#007a3f" fill-opacity="1"><g transform="translate(149.315205, 206.779923)"><g><path d="M 0.3125 -0.34375 C 0.3125 -0.613281 0.347656 -0.960938 0.421875 -1.390625 C 0.503906 -1.828125 0.679688 -2.34375 0.953125 -2.9375 L 2.453125 -2.421875 C 2.316406 -2.035156 2.210938 -1.707031 2.140625 -1.4375 C 2.066406 -1.164062 2.03125 -0.898438 2.03125 -0.640625 C 2.03125 -0.140625 2.242188 0.273438 2.671875 0.609375 C 3.097656 0.941406 3.722656 1.109375 4.546875 1.109375 C 5.171875 1.109375 5.703125 1.035156 6.140625 0.890625 C 6.578125 0.742188 6.910156 0.570312 7.140625 0.375 C 7.367188 0.175781 7.484375 -0.00390625 7.484375 -0.171875 C 7.484375 -0.285156 7.382812 -0.382812 7.1875 -0.46875 C 7 -0.5625 6.765625 -0.65625 6.484375 -0.75 C 6.203125 -0.851562 5.921875 -0.976562 5.640625 -1.125 C 5.367188 -1.269531 5.132812 -1.457031 4.9375 -1.6875 C 4.75 -1.925781 4.65625 -2.226562 4.65625 -2.59375 C 4.65625 -2.894531 4.734375 -3.234375 4.890625 -3.609375 C 5.054688 -3.984375 5.289062 -4.335938 5.59375 -4.671875 C 5.894531 -5.015625 6.253906 -5.289062 6.671875 -5.5 C 7.097656 -5.71875 7.5625 -5.828125 8.0625 -5.828125 C 8.425781 -5.828125 8.753906 -5.769531 9.046875 -5.65625 C 9.335938 -5.539062 9.585938 -5.410156 9.796875 -5.265625 L 9.15625 -3.84375 C 8.789062 -4.070312 8.421875 -4.1875 8.046875 -4.1875 C 7.742188 -4.1875 7.460938 -4.109375 7.203125 -3.953125 C 6.941406 -3.804688 6.734375 -3.625 6.578125 -3.40625 C 6.421875 -3.1875 6.34375 -2.976562 6.34375 -2.78125 C 6.34375 -2.632812 6.410156 -2.503906 6.546875 -2.390625 C 6.691406 -2.285156 6.878906 -2.1875 7.109375 -2.09375 C 7.335938 -2 7.578125 -1.898438 7.828125 -1.796875 C 8.085938 -1.703125 8.328125 -1.59375 8.546875 -1.46875 C 8.773438 -1.351562 8.960938 -1.207031 9.109375 -1.03125 C 9.253906 -0.863281 9.328125 -0.660156 9.328125 -0.421875 C 9.328125 -0.0546875 9.21875 0.3125 9 0.6875 C 8.78125 1.0625 8.457031 1.410156 8.03125 1.734375 C 7.613281 2.054688 7.097656 2.316406 6.484375 2.515625 C 5.867188 2.722656 5.15625 2.828125 4.34375 2.828125 C 3.5625 2.828125 2.867188 2.707031 2.265625 2.46875 C 1.660156 2.226562 1.179688 1.875 0.828125 1.40625 C 0.484375 0.9375 0.3125 0.351562 0.3125 -0.34375 Z M 0.3125 -0.34375 "/></g></g></g><g fill="#007a3f" fill-opacity="1"><g transform="translate(159.340458, 206.779923)"><g><path d="M 0.203125 2.8125 L -0.421875 1.25 C 0.617188 0.882812 1.375 0.460938 1.84375 -0.015625 C 2.3125 -0.492188 2.546875 -1.003906 2.546875 -1.546875 C 2.546875 -1.878906 2.472656 -2.238281 2.328125 -2.625 C 2.179688 -3.019531 1.992188 -3.445312 1.765625 -3.90625 L 3.359375 -4.6875 C 3.640625 -4.132812 3.859375 -3.609375 4.015625 -3.109375 C 4.179688 -2.617188 4.265625 -2.15625 4.265625 -1.71875 C 4.265625 -0.71875 3.9375 0.160156 3.28125 0.921875 C 2.632812 1.691406 1.609375 2.320312 0.203125 2.8125 Z M 0.203125 2.8125 "/></g></g></g><g fill="#007a3f" fill-opacity="1"><g transform="translate(164.334762, 206.779923)"><g><path d="M 3.875 0.0625 C 3.113281 0.0625 2.523438 -0.015625 2.109375 -0.171875 C 1.703125 -0.328125 1.414062 -0.566406 1.25 -0.890625 C 1.082031 -1.222656 0.992188 -1.644531 0.984375 -2.15625 L 0.71875 -8.9375 L 2.4375 -8.9375 L 2.6875 -2.96875 C 2.707031 -2.59375 2.75 -2.3125 2.8125 -2.125 C 2.875 -1.9375 2.992188 -1.8125 3.171875 -1.75 C 3.359375 -1.6875 3.632812 -1.65625 4 -1.65625 C 4.300781 -1.65625 4.519531 -1.570312 4.65625 -1.40625 C 4.789062 -1.25 4.859375 -1.050781 4.859375 -0.8125 C 4.859375 -0.5625 4.769531 -0.351562 4.59375 -0.1875 C 4.425781 -0.0195312 4.1875 0.0625 3.875 0.0625 Z M 3.875 0.0625 "/></g></g></g><g fill="#007a3f" fill-opacity="1"><g transform="translate(168.217868, 206.779923)"><g><path d="M 0 0.0625 L 0.125 -1.65625 C 0.320312 -1.65625 0.472656 -1.691406 0.578125 -1.765625 C 0.691406 -1.847656 0.800781 -1.988281 0.90625 -2.1875 C 1.007812 -2.394531 1.15625 -2.675781 1.34375 -3.03125 C 1.75 -3.800781 2.179688 -4.335938 2.640625 -4.640625 C 3.097656 -4.941406 3.546875 -5.09375 3.984375 -5.09375 C 4.429688 -5.09375 4.84375 -4.941406 5.21875 -4.640625 C 5.601562 -4.347656 5.960938 -3.800781 6.296875 -3 C 6.523438 -2.445312 6.757812 -2.082031 7 -1.90625 C 7.238281 -1.738281 7.488281 -1.65625 7.75 -1.65625 C 8.0625 -1.65625 8.28125 -1.570312 8.40625 -1.40625 C 8.539062 -1.25 8.609375 -1.050781 8.609375 -0.8125 C 8.609375 -0.5625 8.519531 -0.351562 8.34375 -0.1875 C 8.175781 -0.0195312 7.9375 0.0625 7.625 0.0625 C 7.269531 0.0625 6.941406 0.0078125 6.640625 -0.09375 C 6.335938 -0.195312 6.085938 -0.351562 5.890625 -0.5625 C 5.753906 -0.351562 5.5625 -0.171875 5.3125 -0.015625 C 5.070312 0.140625 4.785156 0.21875 4.453125 0.21875 C 4.242188 0.21875 4.003906 0.175781 3.734375 0.09375 C 3.460938 0.0195312 3.179688 -0.101562 2.890625 -0.28125 C 2.597656 -0.46875 2.332031 -0.71875 2.09375 -1.03125 C 1.851562 -0.601562 1.578125 -0.3125 1.265625 -0.15625 C 0.960938 -0.0078125 0.539062 0.0625 0 0.0625 Z M 2.796875 -2.484375 C 2.953125 -2.234375 3.175781 -2.003906 3.46875 -1.796875 C 3.757812 -1.585938 4.066406 -1.484375 4.390625 -1.484375 C 4.546875 -1.484375 4.675781 -1.546875 4.78125 -1.671875 C 4.894531 -1.796875 4.898438 -1.984375 4.796875 -2.234375 C 4.742188 -2.367188 4.664062 -2.53125 4.5625 -2.71875 C 4.457031 -2.90625 4.34375 -3.066406 4.21875 -3.203125 C 4.09375 -3.335938 3.957031 -3.40625 3.8125 -3.40625 C 3.644531 -3.40625 3.472656 -3.332031 3.296875 -3.1875 C 3.128906 -3.039062 2.960938 -2.804688 2.796875 -2.484375 Z M 2.796875 -2.484375 "/></g></g></g><g fill="#007a3f" fill-opacity="1"><g transform="translate(175.83755, 206.779923)"><g><path d="M 0 0.0625 L 0.125 -1.65625 C 0.65625 -1.65625 1.023438 -1.710938 1.234375 -1.828125 C 1.441406 -1.941406 1.546875 -2.191406 1.546875 -2.578125 C 1.546875 -2.804688 1.515625 -3.078125 1.453125 -3.390625 C 1.398438 -3.710938 1.320312 -4.039062 1.21875 -4.375 C 1.125 -4.71875 1.023438 -5.035156 0.921875 -5.328125 L 2.609375 -5.796875 C 2.710938 -5.515625 2.8125 -5.191406 2.90625 -4.828125 C 3 -4.460938 3.082031 -4.082031 3.15625 -3.6875 C 3.226562 -3.300781 3.265625 -2.929688 3.265625 -2.578125 C 3.265625 -2.023438 3.175781 -1.570312 3 -1.21875 C 2.832031 -0.875 2.59375 -0.609375 2.28125 -0.421875 C 1.976562 -0.234375 1.628906 -0.101562 1.234375 -0.03125 C 0.847656 0.03125 0.4375 0.0625 0 0.0625 Z M 1.84375 0.25 L 2.265625 0.75 C 1.992188 0.90625 1.832031 1.066406 1.78125 1.234375 L 1.796875 1.234375 C 2.234375 1.234375 2.453125 1.390625 2.453125 1.703125 C 2.453125 1.816406 2.398438 1.945312 2.296875 2.09375 C 2.191406 2.25 1.988281 2.328125 1.6875 2.328125 C 1.476562 2.328125 1.289062 2.265625 1.125 2.140625 C 0.957031 2.023438 0.875 1.832031 0.875 1.5625 C 0.875 1.320312 0.945312 1.070312 1.09375 0.8125 C 1.238281 0.5625 1.488281 0.375 1.84375 0.25 Z M 1.84375 0.25 "/></g></g></g><g fill="#007a3f" fill-opacity="1"><g transform="translate(179.708445, 206.779923)"><g/></g></g><g fill="#007a3f" fill-opacity="1"><g transform="translate(182.614672, 206.779923)"><g><path d="M 0.3125 -0.34375 C 0.3125 -0.613281 0.347656 -0.960938 0.421875 -1.390625 C 0.503906 -1.828125 0.679688 -2.34375 0.953125 -2.9375 L 2.453125 -2.421875 C 2.316406 -2.035156 2.210938 -1.707031 2.140625 -1.4375 C 2.066406 -1.164062 2.03125 -0.898438 2.03125 -0.640625 C 2.03125 -0.078125 2.226562 0.363281 2.625 0.6875 C 3.019531 1.019531 3.535156 1.1875 4.171875 1.1875 C 4.867188 1.1875 5.398438 1.070312 5.765625 0.84375 C 6.140625 0.625 6.390625 0.273438 6.515625 -0.203125 C 6.648438 -0.679688 6.707031 -1.316406 6.6875 -2.109375 L 6.4375 -8.9375 L 8.15625 -8.9375 L 8.34375 -3.171875 C 8.351562 -2.753906 8.40625 -2.4375 8.5 -2.21875 C 8.601562 -2 8.757812 -1.847656 8.96875 -1.765625 C 9.175781 -1.691406 9.445312 -1.65625 9.78125 -1.65625 C 10.082031 -1.65625 10.300781 -1.570312 10.4375 -1.40625 C 10.570312 -1.25 10.640625 -1.050781 10.640625 -0.8125 C 10.640625 -0.5625 10.550781 -0.351562 10.375 -0.1875 C 10.207031 -0.0195312 9.972656 0.0625 9.671875 0.0625 C 9.453125 0.0625 9.21875 0.03125 8.96875 -0.03125 C 8.726562 -0.101562 8.503906 -0.21875 8.296875 -0.375 C 8.109375 0.789062 7.660156 1.613281 6.953125 2.09375 C 6.242188 2.582031 5.300781 2.828125 4.125 2.828125 C 3.4375 2.828125 2.800781 2.707031 2.21875 2.46875 C 1.644531 2.238281 1.179688 1.890625 0.828125 1.421875 C 0.484375 0.960938 0.3125 0.375 0.3125 -0.34375 Z M 0.3125 -0.34375 "/></g></g></g><g fill="#007a3f" fill-opacity="1"><g transform="translate(192.273588, 206.779923)"><g><path d="M 0 0.0625 L 0.125 -1.65625 L 1.875 -1.65625 C 2.550781 -1.65625 2.890625 -1.84375 2.890625 -2.21875 C 2.890625 -2.320312 2.835938 -2.476562 2.734375 -2.6875 C 2.640625 -2.90625 2.425781 -3.171875 2.09375 -3.484375 C 1.914062 -3.648438 1.722656 -3.820312 1.515625 -4 C 1.304688 -4.1875 1.109375 -4.363281 0.921875 -4.53125 C 0.734375 -4.695312 0.578125 -4.84375 0.453125 -4.96875 C 0.328125 -5.101562 0.265625 -5.195312 0.265625 -5.25 C 0.265625 -5.425781 0.28125 -5.628906 0.3125 -5.859375 C 0.351562 -6.085938 0.425781 -6.242188 0.53125 -6.328125 C 0.71875 -6.492188 1.019531 -6.703125 1.4375 -6.953125 C 1.851562 -7.210938 2.359375 -7.492188 2.953125 -7.796875 C 3.554688 -8.097656 4.222656 -8.40625 4.953125 -8.71875 L 5.640625 -7.234375 C 4.960938 -6.941406 4.335938 -6.65625 3.765625 -6.375 C 3.191406 -6.101562 2.691406 -5.835938 2.265625 -5.578125 C 2.828125 -5.117188 3.273438 -4.703125 3.609375 -4.328125 C 3.953125 -3.960938 4.207031 -3.628906 4.375 -3.328125 C 4.539062 -3.035156 4.648438 -2.769531 4.703125 -2.53125 C 4.753906 -2.289062 4.78125 -2.082031 4.78125 -1.90625 C 4.78125 -1.707031 4.734375 -1.492188 4.640625 -1.265625 C 4.546875 -1.046875 4.378906 -0.832031 4.140625 -0.625 C 3.898438 -0.425781 3.5625 -0.257812 3.125 -0.125 C 2.695312 0 2.144531 0.0625 1.46875 0.0625 Z M 0 0.0625 "/></g></g></g><g fill="#007a3f" fill-opacity="1"><g transform="translate(197.817392, 206.779923)"><g/></g></g><g fill="#007a3f" fill-opacity="1"><g transform="translate(200.723619, 206.779923)"><g><path d="M 3.875 0.0625 C 3.113281 0.0625 2.523438 -0.015625 2.109375 -0.171875 C 1.703125 -0.328125 1.414062 -0.566406 1.25 -0.890625 C 1.082031 -1.222656 0.992188 -1.644531 0.984375 -2.15625 L 0.71875 -8.9375 L 2.4375 -8.9375 L 2.6875 -2.96875 C 2.707031 -2.59375 2.75 -2.3125 2.8125 -2.125 C 2.875 -1.9375 2.992188 -1.8125 3.171875 -1.75 C 3.359375 -1.6875 3.632812 -1.65625 4 -1.65625 C 4.300781 -1.65625 4.519531 -1.570312 4.65625 -1.40625 C 4.789062 -1.25 4.859375 -1.050781 4.859375 -0.8125 C 4.859375 -0.5625 4.769531 -0.351562 4.59375 -0.1875 C 4.425781 -0.0195312 4.1875 0.0625 3.875 0.0625 Z M 3.875 0.0625 "/></g></g></g><g fill="#007a3f" fill-opacity="1"><g transform="translate(204.606725, 206.779923)"><g><path d="M 0 0.0625 L 0.125 -1.65625 L 1.875 -1.65625 C 2.550781 -1.65625 2.890625 -1.84375 2.890625 -2.21875 C 2.890625 -2.320312 2.835938 -2.476562 2.734375 -2.6875 C 2.640625 -2.90625 2.425781 -3.171875 2.09375 -3.484375 C 1.914062 -3.648438 1.722656 -3.820312 1.515625 -4 C 1.304688 -4.1875 1.109375 -4.363281 0.921875 -4.53125 C 0.734375 -4.695312 0.578125 -4.84375 0.453125 -4.96875 C 0.328125 -5.101562 0.265625 -5.195312 0.265625 -5.25 C 0.265625 -5.425781 0.28125 -5.628906 0.3125 -5.859375 C 0.351562 -6.085938 0.425781 -6.242188 0.53125 -6.328125 C 0.71875 -6.492188 1.019531 -6.703125 1.4375 -6.953125 C 1.851562 -7.210938 2.359375 -7.492188 2.953125 -7.796875 C 3.554688 -8.097656 4.222656 -8.40625 4.953125 -8.71875 L 5.640625 -7.234375 C 4.960938 -6.941406 4.335938 -6.65625 3.765625 -6.375 C 3.191406 -6.101562 2.691406 -5.835938 2.265625 -5.578125 C 2.828125 -5.117188 3.273438 -4.703125 3.609375 -4.328125 C 3.953125 -3.960938 4.207031 -3.628906 4.375 -3.328125 C 4.539062 -3.035156 4.648438 -2.769531 4.703125 -2.53125 C 4.753906 -2.289062 4.78125 -2.082031 4.78125 -1.90625 C 4.78125 -1.707031 4.734375 -1.492188 4.640625 -1.265625 C 4.546875 -1.046875 4.378906 -0.832031 4.140625 -0.625 C 3.898438 -0.425781 3.5625 -0.257812 3.125 -0.125 C 2.695312 0 2.144531 0.0625 1.46875 0.0625 Z M 0 0.0625 "/></g></g></g><g fill="#007a3f" fill-opacity="1"><g transform="translate(210.150528, 206.779923)"><g/></g></g><g fill="#007a3f" fill-opacity="1"><g transform="translate(213.056755, 206.779923)"><g><path d="M 5.1875 0.25 C 4.007812 0.25 3.066406 0.132812 2.359375 -0.09375 C 1.660156 -0.332031 1.15625 -0.660156 0.84375 -1.078125 C 0.539062 -1.492188 0.390625 -1.96875 0.390625 -2.5 C 0.390625 -2.875 0.4375 -3.265625 0.53125 -3.671875 C 0.632812 -4.078125 0.726562 -4.429688 0.8125 -4.734375 L 2.34375 -4.390625 C 2.289062 -4.160156 2.238281 -3.914062 2.1875 -3.65625 C 2.132812 -3.40625 2.109375 -3.179688 2.109375 -2.984375 C 2.109375 -2.671875 2.210938 -2.398438 2.421875 -2.171875 C 2.640625 -1.941406 2.992188 -1.765625 3.484375 -1.640625 C 3.984375 -1.515625 4.65625 -1.453125 5.5 -1.453125 L 5.5 -1.421875 L 5.515625 -1.453125 C 7.085938 -1.453125 8.257812 -1.539062 9.03125 -1.71875 C 9.800781 -1.894531 10.1875 -2.207031 10.1875 -2.65625 C 10.1875 -2.957031 10.132812 -3.3125 10.03125 -3.71875 C 9.9375 -4.125 9.816406 -4.539062 9.671875 -4.96875 L 11.265625 -5.4375 C 11.367188 -5.15625 11.46875 -4.847656 11.5625 -4.515625 C 11.664062 -4.191406 11.75 -3.863281 11.8125 -3.53125 C 11.875 -3.207031 11.90625 -2.898438 11.90625 -2.609375 C 11.90625 -2.109375 11.789062 -1.675781 11.5625 -1.3125 C 11.34375 -0.945312 10.976562 -0.648438 10.46875 -0.421875 C 9.96875 -0.191406 9.285156 -0.0234375 8.421875 0.078125 C 7.554688 0.191406 6.476562 0.25 5.1875 0.25 Z M 5.234375 2.984375 C 5.023438 2.984375 4.84375 2.910156 4.6875 2.765625 C 4.539062 2.617188 4.46875 2.441406 4.46875 2.234375 C 4.46875 2.015625 4.539062 1.828125 4.6875 1.671875 C 4.84375 1.523438 5.023438 1.453125 5.234375 1.453125 C 5.453125 1.453125 5.632812 1.523438 5.78125 1.671875 C 5.925781 1.828125 6 2.015625 6 2.234375 C 6 2.441406 5.925781 2.617188 5.78125 2.765625 C 5.632812 2.910156 5.453125 2.984375 5.234375 2.984375 Z M 7.140625 2.984375 C 6.929688 2.984375 6.75 2.910156 6.59375 2.765625 C 6.445312 2.617188 6.375 2.441406 6.375 2.234375 C 6.375 2.015625 6.445312 1.828125 6.59375 1.671875 C 6.75 1.523438 6.929688 1.453125 7.140625 1.453125 C 7.359375 1.453125 7.539062 1.523438 7.6875 1.671875 C 7.832031 1.828125 7.90625 2.015625 7.90625 2.234375 C 7.90625 2.441406 7.832031 2.617188 7.6875 2.765625 C 7.539062 2.910156 7.359375 2.984375 7.140625 2.984375 Z M 6.171875 4.59375 C 5.953125 4.59375 5.765625 4.519531 5.609375 4.375 C 5.460938 4.226562 5.390625 4.050781 5.390625 3.84375 C 5.390625 3.632812 5.460938 3.453125 5.609375 3.296875 C 5.765625 3.140625 5.953125 3.0625 6.171875 3.0625 C 6.378906 3.0625 6.554688 3.140625 6.703125 3.296875 C 6.847656 3.453125 6.921875 3.632812 6.921875 3.84375 C 6.921875 4.050781 6.847656 4.226562 6.703125 4.375 C 6.554688 4.519531 6.378906 4.59375 6.171875 4.59375 Z M 6.171875 4.59375 "/></g></g></g><g fill="#007a3f" fill-opacity="1"><g transform="translate(225.560844, 206.779923)"><g><path d="M 0.953125 0 L 0.71875 -8.09375 L 2.4375 -8.09375 L 2.65625 0 Z M 2.359375 -9.265625 C 2.109375 -9.265625 1.882812 -9.304688 1.6875 -9.390625 C 1.5 -9.484375 1.320312 -9.566406 1.15625 -9.640625 C 0.988281 -9.722656 0.835938 -9.765625 0.703125 -9.765625 C 0.554688 -9.765625 0.421875 -9.726562 0.296875 -9.65625 C 0.179688 -9.582031 0.0625 -9.484375 -0.0625 -9.359375 L -0.640625 -9.890625 C -0.203125 -10.441406 0.242188 -10.71875 0.703125 -10.71875 C 0.910156 -10.71875 1.097656 -10.675781 1.265625 -10.59375 C 1.429688 -10.519531 1.601562 -10.441406 1.78125 -10.359375 C 1.957031 -10.273438 2.148438 -10.234375 2.359375 -10.234375 C 2.484375 -10.234375 2.601562 -10.253906 2.71875 -10.296875 C 2.832031 -10.335938 2.972656 -10.410156 3.140625 -10.515625 L 3.5625 -9.84375 C 3.269531 -9.582031 3.023438 -9.421875 2.828125 -9.359375 C 2.640625 -9.296875 2.484375 -9.265625 2.359375 -9.265625 Z M 2.359375 -9.265625 "/></g></g></g></svg>